<svg t="1698126343203" class="icon" viewBox="0 0 1024 1024" version="1.1" xmlns="http://www.w3.org/2000/svg" p-id="4037" width="200" height="200"><path d="M228.693333 222.72l62.976-37.034667c87.722667-51.2 171.861333-74.069333 250.197334-67.072 49.664 4.608 109.738667 26.794667 178.517333 66.048l18.261333 10.581334a425.472 425.472 0 0 1 91.818667 68.266666c27.477333 30.378667 32.597333 58.88 15.189333 87.210667-14.848 24.746667-52.224 54.442667-111.786666 89.258667l-61.781334 36.352-443.733333-253.610667m633.344-95.061333L846.506667 119.466667c-109.738667-63.488-217.941333-96.085333-321.536-97.621334A671.232 671.232 0 0 0 170.666667 123.733333L0 224.938667l672.768 384.512L849.92 505.173333a725.333333 725.333333 0 0 0 104.618667-70.826666c38.570667-32.768 61.269333-65.194667 68.266666-96.597334 13.312-68.266667-40.448-138.581333-160.256-210.090666" fill="#3C2CEE" p-id="4038"></path><path d="M3.925333 281.088v142.165333l668.672 382.634667 348.842667-211.797333v-131.072L672.597333 663.722667 3.925333 281.088z" fill="#3C2CEE" opacity=".5" p-id="4039"></path><path d="M3.925333 477.525333v142.165334l668.672 382.464 348.842667-211.626667v-131.242667L672.597333 860.16 3.925333 477.525333z" fill="#3C2CEE" opacity=".5" p-id="4040"></path></svg>